<?xml version="1.0" encoding="UTF-8" standalone="no"?>
<!DOCTYPE svg PUBLIC "-//W3C//DTD SVG 1.1//EN" "http://www.w3.org/Graphics/SVG/1.1/DTD/svg11.dtd">
<svg xmlns="http://www.w3.org/2000/svg" version="1.1" viewBox="0.00 0.00 452.00 448.00">
<path stroke="#8d3c38" stroke-width="2.00" fill="none" stroke-linecap="butt" vector-effect="non-scaling-stroke" d="
  M 273.83 58.48
  Q 266.88 57.75 259.93 58.91"
/>
<path fill="#312b24" d="
  M 273.83 58.48
  Q 266.88 57.75 259.93 58.91
  C 256.41 58.99 252.99 59.84 249.59 59.98
  C 247.74 60.06 246.00 59.95 244.20 60.48
  C 241.83 61.17 239.50 60.97 237.00 61.50
  Q 203.89 68.52 175.23 85.25
  Q 155.87 96.55 136.89 116.81
  C 116.01 139.09 101.00 170.59 96.92 201.62
  Q 96.13 207.64 96.05 214.09
  C 95.98 220.29 95.48 227.55 96.55 233.74
  C 97.19 237.45 96.75 240.97 97.85 244.61
  C 98.08 245.36 97.95 246.12 98.10 246.91
  C 110.86 313.16 165.30 362.15 229.67 376.77
  Q 240.61 379.26 244.96 379.76
  Q 247.84 380.10 250.36 380.60
  C 252.64 381.06 254.78 380.74 256.93 381.19
  Q 260.95 382.04 266.27 382.03
  Q 275.48 382.02 284.62 381.92
  C 287.67 381.89 290.67 381.26 293.97 380.96
  Q 320.07 378.60 346.25 368.74
  C 352.12 366.53 358.44 363.33 364.60 360.84
  Q 365.65 360.42 365.73 361.54
  Q 365.78 362.19 365.79 362.79
  Q 366.07 378.47 366.05 397.29
  Q 366.04 407.93 365.66 417.24
  Q 365.26 427.21 364.78 437.07
  Q 364.72 438.41 364.50 439.90
  A 1.08 1.08 0.0 0 1 363.49 440.82
  Q 339.17 442.39 314.36 441.68
  Q 301.10 441.30 287.37 441.04
  C 282.23 440.94 277.17 440.15 272.16 440.05
  Q 269.44 439.99 266.80 439.58
  C 263.37 439.05 259.99 439.22 256.65 438.59
  Q 254.23 438.13 251.87 438.06
  C 248.73 437.96 245.73 437.02 242.61 437.05
  C 240.38 437.06 238.39 436.43 236.19 436.22
  Q 225.26 435.18 214.50 432.99
  Q 179.35 425.86 149.08 413.66
  Q 137.88 409.14 123.33 401.74
  Q 114.26 397.11 105.35 392.15
  Q 79.98 378.02 58.58 354.87
  Q 42.69 337.68 33.58 317.36
  Q 26.03 300.53 22.20 283.55
  Q 20.93 277.93 20.30 271.59
  Q 19.89 267.50 19.44 263.46
  Q 19.01 259.49 18.90 255.44
  C 18.66 246.69 18.01 238.02 18.40 229.31
  Q 18.71 222.43 19.00 215.86
  Q 19.10 213.67 19.51 211.69
  C 19.92 209.69 19.84 207.69 20.26 205.73
  Q 26.14 177.97 36.15 158.07
  Q 40.37 149.69 46.57 139.75
  Q 51.91 131.21 58.33 123.14
  C 108.69 59.94 184.72 24.05 263.41 10.44
  Q 273.57 8.68 283.45 7.33
  Q 292.49 6.10 303.22 5.83
  C 322.92 5.33 341.51 5.67 361.39 5.93
  Q 366.82 6.00 372.09 6.47
  Q 375.61 6.77 379.19 6.89
  Q 382.48 6.99 386.17 7.58
  Q 397.55 9.39 407.58 11.44
  Q 410.87 12.11 414.19 13.17
  A 1.10 1.08 7.4 0 1 414.96 14.15
  Q 415.61 24.72 415.70 35.74
  Q 416.05 74.67 415.83 119.41
  Q 415.83 120.19 415.29 119.63
  C 400.52 104.32 384.62 90.68 365.97 80.85
  Q 355.64 75.41 343.63 70.47
  Q 340.49 69.18 337.28 68.33
  C 334.63 67.62 332.10 66.33 329.53 65.62
  Q 307.31 59.42 293.75 58.31
  Q 289.15 57.93 273.83 58.48
  Z"
/>
<path fill="#e94d4b" d="
  M 273.83 58.48
  L 259.93 58.91
  Q 266.88 57.75 273.83 58.48
  Z"
/>
<path fill="#e94d4b" d="
  M 325.41 98.38
  C 336.11 104.04 348.24 110.52 356.25 117.21
  C 367.05 126.20 377.72 136.81 385.30 148.68
  Q 398.58 169.48 404.33 193.20
  Q 404.85 195.36 405.16 198.83
  C 405.39 201.37 405.90 203.75 405.99 206.31
  Q 406.49 219.81 406.03 234.08
  Q 405.96 236.35 405.55 238.48
  C 405.15 240.53 405.14 242.61 404.71 244.65
  C 393.65 297.26 354.01 337.23 301.75 348.48
  Q 299.25 349.02 296.68 349.24
  C 294.48 349.43 292.39 349.91 290.15 349.99
  Q 276.85 350.41 263.25 350.06
  Q 260.65 349.99 258.24 349.59
  C 255.92 349.21 253.59 349.17 251.29 348.69
  Q 229.19 344.08 211.88 333.77
  C 178.16 313.68 153.26 280.53 147.30 241.22
  Q 146.80 237.88 146.36 234.38
  C 145.49 227.47 145.92 220.10 145.98 213.06
  C 146.00 209.88 146.63 207.00 146.88 203.88
  Q 147.03 202.02 147.30 200.16
  Q 153.12 160.01 181.62 130.44
  Q 211.55 99.40 253.54 91.39
  Q 271.85 87.90 289.83 90.15
  Q 303.21 91.83 318.31 96.34
  C 320.72 97.06 323.12 97.17 325.41 98.38
  Z"
/>
<path fill="#312b24" d="
  M 443.09 427.38
  Q 441.54 427.86 439.79 428.14
  Q 428.46 429.97 415.57 432.57
  Q 406.78 434.35 398.62 435.66
  C 395.85 436.11 393.29 435.95 390.56 436.21
  Q 390.00 436.26 390.00 435.69
  L 390.00 303.41
  A 0.41 0.40 -90.0 0 1 390.40 303.00
  L 446.21 303.00
  A 0.77 0.77 0.0 0 1 446.98 303.76
  C 447.12 316.31 446.84 328.86 446.89 341.42
  Q 447.04 377.20 447.01 412.27
  Q 447.01 417.78 446.57 422.75
  Q 446.25 426.39 443.09 427.38
  Z"
/>
</svg>
